<svg xmlns="http://www.w3.org/2000/svg" width="400" height="620" viewBox="0 0 200 310"><defs></defs>
<ellipse cx="105" cy="296" rx="70" ry="9" fill="#00629d" opacity=".12"/>
<path d="M102 209C106 137 70 86 84 32M111 210C91 163 134 111 147 68" fill="none" stroke="#00629d" stroke-width="5" stroke-linecap="round"/>
<path d="M84 87C49 90 19 59 28 30C63 28 85 50 84 87Z" fill="#4fafe0"/><path d="M84 87L32 37" stroke="#e7f5ff" stroke-width="2"/>
<path d="M101 154C60 157 31 126 36 105C76 91 98 128 101 154Z" fill="#00629d"/><path d="M101 154L43 112" stroke="#a1d5f4" stroke-width="2"/>
<path d="M117 146C107 111 138 83 173 91C181 125 154 147 117 146Z" fill="#53b4e5"/><path d="M117 146L166 100" stroke="#faf8f6" stroke-width="2"/>
<path d="M141 77C132 48 147 19 172 19C181 49 166 73 141 77Z" fill="#00629d"/>
<path d="M57 214L67 281Q105 304 143 281L157 214Z" fill="#ed434b"/><path d="M137 214L128 287L143 281L157 214Z" fill="#be303e"/><ellipse cx="107" cy="214" rx="50" ry="11" fill="#ff9186"/><ellipse cx="107" cy="214" rx="40" ry="6" fill="#854751"/>
<path d="M79 229L84 272" stroke="#ffb8a8" stroke-width="4" stroke-linecap="round"/>
<path d="M86 15L92 3L104 10L103 22L91 25Z" fill="#e4dff4"/><path d="M91 16L98 12" stroke="#faf8f6" stroke-width="2"/>
</svg>
